<!DOCTYPE svg>
<svg xmlns="http://www.w3.org/2000/svg"
	    	 width="33.7222in" height="23.7778in"
	     	viewBox="0 0 2428 1712">
	  		<path fill="black" stroke="black" stroke-width="20"
	        d="M 339.75,799.25
           C 344.50,798.50 355.75,791.25 366.00,785.33
             398.67,766.67 512.00,714.67 575.33,681.33
             611.33,668.00 629.33,658.67 631.33,702.00
             592.67,751.33 664.00,762.00 681.00,715.00
             686.00,710.00 701.33,685.33 744.00,684.00
             882.67,698.67 780.00,939.33 776.00,975.33
             772.00,1011.33 627.33,1306.67 644.00,1386.00
             667.33,1434.67 652.67,1448.00 616.67,1462.67
             580.67,1477.33 559.33,1418.67 562.67,1386.00
             571.33,1363.33 656.00,1145.33 668.67,1120.00
             706.00,1048.67 778.00,840.67 771.33,780.00
             772.67,758.67 755.33,692.00 700.00,750.67
             612.67,847.33 570.67,737.33 583.33,715.33
             574.00,716.00 364.00,814.67 334.67,832.00
             341.33,853.33 362.00,910.67 388.67,958.00
             424.67,1004.67 381.33,1024.00 360.67,1001.33
             340.67,965.33 316.00,883.33 303.33,842.00
             302.67,842.67 312.00,841.33 269.33,854.67
             241.33,857.33 213.33,865.33 245.33,816.00
             266.67,794.67 265.33,796.00 284.67,770.67
             276.67,746.00 217.33,474.00 234.00,416.67
             238.00,393.33 268.67,379.33 272.00,413.00
             259.00,516.00 315.00,743.00 315.00,743.00
             315.00,743.00 704.00,469.00 672.00,338.00
             604.00,200.00 136.00,314.00 96.00,400.00
             72.00,428.00 40.00,416.00 52.00,376.00
             68.00,310.00 564.00,141.00 705.00,320.00
             762.00,459.00 377.75,746.75 334.50,782.75
             337.00,792.50 339.00,797.50 339.75,799.25 Z
           M 278.50,822.50
           C 278.50,822.50 283.50,812.00 293.50,805.75
             293.50,805.75 297.50,818.75 297.50,818.75
             293.50,821.50 278.50,822.50 278.50,822.50 Z
           M 1120.00,747.00
           C 1104.08,754.58 1086.42,768.41 1069.00,780.00
             1040.47,798.98 1010.48,812.97 1008.00,808.00
             1004.00,800.00 962.00,692.00 936.00,640.00
             910.00,588.00 896.00,640.00 896.00,640.00
             896.00,640.00 842.00,883.00 854.00,960.00
             862.00,1003.00 905.00,1061.00 909.00,951.00
             907.00,906.00 904.00,874.00 913.00,855.00
             936.00,855.00 953.00,851.00 974.00,851.00
             995.00,899.00 1012.55,971.96 1029.00,998.00
             1054.00,1052.00 1129.00,1047.00 1072.00,958.00
             1045.42,897.25 1032.43,871.35 1022.00,839.00
             1039.00,831.00 1052.38,821.63 1088.00,804.00
             1086.00,889.00 1116.00,920.00 1118.00,926.00
             1120.00,932.00 1153.00,896.00 1155.00,883.00
             1246.00,988.00 1336.00,894.00 1351.00,797.00
             1371.00,673.00 1295.00,443.00 1262.00,359.00
             1248.00,322.00 1190.00,132.00 1180.00,124.00
             1189.00,202.00 1269.00,484.00 1282.00,522.00
             1297.00,581.00 1334.00,725.00 1315.00,782.00
             1307.00,830.00 1253.00,950.00 1149.00,833.00
             1141.00,856.00 1132.00,871.00 1132.00,871.00
             1112.00,862.00 1147.00,766.00 1120.00,747.00 Z
           M 965.00,819.00
           C 946.00,823.00 915.00,826.00 909.00,821.00
             903.00,816.00 915.00,731.00 923.00,709.00
             931.00,687.00 978.00,816.00 965.00,819.00 Z
           M 1589.00,516.00
           C 1589.00,516.00 1563.00,749.00 1557.00,781.00
             1551.00,813.00 1577.00,855.00 1608.00,782.00
             1631.00,705.00 1643.00,618.00 1620.00,607.00
             1654.00,640.00 1699.00,681.00 1825.00,439.00
             1821.00,538.00 1789.00,644.00 1881.00,755.00
             1944.00,813.00 1946.00,742.00 1915.00,737.00
             1828.00,634.00 1854.00,581.00 1857.00,369.00
             1864.00,307.00 1860.00,332.00 1871.00,299.00
             1855.00,276.00 1827.00,282.00 1832.00,302.00
             1837.00,322.00 1781.00,541.00 1667.00,591.00
             1646.00,603.00 1613.00,572.00 1615.00,570.00
             1617.00,553.00 1620.00,517.00 1620.00,517.00
             1617.00,464.00 1576.00,504.00 1589.00,516.00 Z
           M 1605.00,609.00
           C 1605.00,609.00 1583.00,767.00 1579.00,778.00
             1597.00,762.00 1622.00,655.00 1605.00,609.00 Z
           M 2197.00,1295.00
           C 2212.00,1240.00 2258.00,751.00 2248.00,684.00
             2258.00,613.00 2228.00,551.00 2201.00,607.00
             2134.00,729.00 2093.00,682.00 2066.00,659.00
             2065.00,678.00 2062.00,731.00 2027.00,740.00
             1933.00,732.00 1967.00,621.00 1967.00,621.00
             1967.00,621.00 1989.00,573.00 2003.00,622.00
             1957.00,715.00 2079.00,710.00 2044.00,612.00
             1987.00,591.00 2039.00,551.00 2071.00,606.00
             2077.00,665.00 2111.00,678.00 2158.00,612.00
             2205.00,546.00 2238.00,512.00 2276.00,598.00
             2302.00,717.00 2261.00,1174.00 2260.00,1226.00
             2254.00,1277.00 2229.00,1390.00 2258.00,1519.00
             2304.00,1617.00 2214.00,1697.00 2203.00,1529.00
             2184.00,1435.00 2194.00,1375.00 2197.00,1295.00 Z" />
			</svg>